<?xml version="1.0" encoding="UTF-8" standalone="no"?><!-- Generator: Gravit.io --><svg xmlns="http://www.w3.org/2000/svg" xmlns:xlink="http://www.w3.org/1999/xlink" style="isolation:isolate" viewBox="0 0 850.394 850.394" width="850.394pt" height="850.394pt"><defs><clipPath id="_clipPath_tLr7uuyscACsz0cVZfaYAXaSiL8Ifhqs"><rect width="850.394" height="850.394"/></clipPath></defs><g clip-path="url(#_clipPath_tLr7uuyscACsz0cVZfaYAXaSiL8Ifhqs)"><rect width="850.394" height="850.394" style="fill:rgb(0,0,0)"/><g><path d=" M 375.197 715.197 L 355.197 715.197 L 355.197 615.197 L 355.197 615.197 L 415.197 615.197 L 415.197 655.197 L 415.197 655.197 L 415.197 655.197 C 409.678 655.197 405.197 659.678 405.197 665.197 C 405.197 670.716 409.678 675.197 415.197 675.197 L 415.197 715.197 L 395.197 715.197 L 395.197 685.197 C 395.197 679.678 390.716 675.197 385.197 675.197 C 379.678 675.197 375.197 679.678 375.197 685.197 L 375.197 715.197 Z  M 375.197 645.197 C 375.197 639.678 379.678 635.197 385.197 635.197 C 390.716 635.197 395.197 639.678 395.197 645.197 C 395.197 650.716 390.716 655.197 385.197 655.197 C 379.678 655.197 375.197 650.716 375.197 645.197 L 375.197 645.197 L 375.197 645.197 L 375.197 645.197 Z " fill-rule="evenodd" fill="rgb(255,255,255)"/><path d=" M 295.197 645.197 C 295.197 639.678 299.678 635.197 305.197 635.197 C 310.716 635.197 315.197 639.678 315.197 645.197 L 315.197 685.197 L 315.197 685.197 C 315.197 690.716 310.716 695.197 305.197 695.197 C 299.678 695.197 295.197 690.716 295.197 685.197 L 295.197 685.197 L 295.197 685.197 L 295.197 645.197 Z  M 275.197 615.197 L 335.197 615.197 L 335.197 715.197 L 275.197 715.197 L 275.197 615.197 L 275.197 615.197 L 275.197 615.197 Z " fill-rule="evenodd" fill="rgb(255,255,255)"/><path d=" M 455.197 645.197 C 455.197 639.678 459.678 635.197 465.197 635.197 C 470.716 635.197 475.197 639.678 475.197 645.197 L 475.197 685.197 L 475.197 685.197 C 475.197 690.716 470.716 695.197 465.197 695.197 C 459.678 695.197 455.197 690.716 455.197 685.197 L 455.197 685.197 L 455.197 685.197 L 455.197 645.197 Z  M 435.197 615.197 L 495.197 615.197 L 495.197 715.197 L 435.197 715.197 L 435.197 615.197 L 435.197 615.197 L 435.197 615.197 Z " fill-rule="evenodd" fill="rgb(255,255,255)"/><path d=" M 535.197 645.197 C 535.197 639.678 539.678 635.197 545.197 635.197 C 550.716 635.197 555.197 639.678 555.197 645.197 L 555.197 685.197 L 555.197 685.197 C 555.197 690.716 550.716 695.197 545.197 695.197 C 539.678 695.197 535.197 690.716 535.197 685.197 L 535.197 685.197 L 535.197 685.197 L 535.197 645.197 Z  M 515.197 615.197 L 575.197 615.197 L 575.197 715.197 L 515.197 715.197 L 515.197 615.197 L 515.197 615.197 L 515.197 615.197 Z " fill-rule="evenodd" fill="rgb(255,255,255)"/><path d=" M 655.197 635.197 L 655.197 615.197 L 595.197 615.197 L 595.197 615.197 L 595.197 615.197 L 595.197 715.197 L 615.197 715.197 L 615.197 715.197 L 615.197 685.197 L 615.197 685.197 L 615.197 685.197 C 615.197 679.678 619.678 675.197 625.197 675.197 L 625.197 675.197 L 655.197 675.197 L 655.197 675.197 L 655.197 655.197 L 625.197 655.197 L 625.197 655.197 C 619.678 655.197 615.197 650.716 615.197 645.197 L 615.197 645.197 L 615.197 645.197 L 615.197 645.197 L 615.197 645.197 C 615.197 639.678 619.678 635.197 625.197 635.197 L 625.197 635.197 L 655.197 635.197 Z " fill-rule="evenodd" fill="rgb(255,255,255)"/><path d=" M 195.214 615.197 L 195.197 615.197 L 195.197 615.197 L 195.197 715.197 L 215.197 715.197 L 215.197 685.197 L 215.197 685.197 C 215.197 679.678 219.678 675.197 225.197 675.197 C 229.078 675.197 232.446 677.413 234.103 680.647 L 255.18 715.197 L 255.18 715.197 L 255.197 715.197 L 255.197 615.197 L 235.197 615.197 L 235.197 645.197 L 235.197 645.197 C 235.197 650.716 230.716 655.197 225.197 655.197 C 221.316 655.197 217.948 652.981 216.291 649.746 L 195.214 615.197 Z " fill-rule="evenodd" fill="rgb(255,255,255)"/><path d=" M 565.197 265.197 L 635.197 175.197 L 635.197 485.197 L 565.197 432.246 L 565.197 265.197 L 565.197 265.197 L 565.197 265.197 L 565.197 265.197 L 565.197 265.197 Z  M 545.197 255.197 L 621.197 155.197 L 215.197 155.197 L 215.197 205.197 L 305.197 295.197 L 545.197 255.197 L 545.197 255.197 L 545.197 255.197 L 545.197 255.197 Z  M 549.854 445.197 L 635.197 511.818 L 635.197 575.197 L 215.197 575.197 L 215.197 511.887 L 299.596 445.197 L 549.854 445.197 L 549.854 445.197 L 549.854 445.197 Z  M 285.197 305.197 L 215.197 235.197 L 215.197 485.197 L 285.197 432.197 L 285.197 305.197 L 285.197 305.197 Z  M 195.197 135.197 L 655.197 135.197 L 655.197 595.197 L 195.197 595.197 L 195.197 135.197 L 195.197 135.197 L 195.197 135.197 L 195.197 135.197 L 195.197 135.197 Z  M 305.197 312.612 L 545.197 273.048 L 545.197 425.197 L 305.197 425.197 L 305.197 312.612 Z " fill-rule="evenodd" fill="rgb(255,255,255)"/></g></g></svg>